<svg id="visual" viewBox="0 0 960 540" width="960" height="540" xmlns="http://www.w3.org/2000/svg" xmlns:xlink="http://www.w3.org/1999/xlink" version="1.1"><g stroke-width="1" stroke-linejoin="bevel"><path d="M414.4 250.4L362.1 328.6L425.4 312.6Z" fill="#000e16" stroke="#000e16"></path><path d="M414.4 250.4L320.1 222.4L362.1 328.6Z" fill="#00101c" stroke="#00101c"></path><path d="M320.1 222.4L278.8 284.6L362.1 328.6Z" fill="#000f1b" stroke="#000f1b"></path><path d="M335.1 409.7L444.4 394.7L362.1 328.6Z" fill="#000e18" stroke="#000e18"></path><path d="M362.1 328.6L444.4 394.7L425.4 312.6Z" fill="#000e18" stroke="#000e18"></path><path d="M525.6 170.3L439.4 151.3L414.4 250.4Z" fill="#02090c" stroke="#02090c"></path><path d="M278.8 284.6L335.1 409.7L362.1 328.6Z" fill="#000e16" stroke="#000e16"></path><path d="M543.6 336.6L414.4 250.4L425.4 312.6Z" fill="#000f19" stroke="#000f19"></path><path d="M414.4 250.4L439.4 151.3L320.1 222.4Z" fill="#000e16" stroke="#000e16"></path><path d="M444.4 394.7L506.6 373.7L425.4 312.6Z" fill="#000d15" stroke="#000d15"></path><path d="M320.1 222.4L251.8 213.4L278.8 284.6Z" fill="#010a0e" stroke="#010a0e"></path><path d="M259.8 167.3L251.8 213.4L320.1 222.4Z" fill="#000c12" stroke="#000c12"></path><path d="M231.8 393.7L335.1 433.9L335.1 409.7Z" fill="#000c13" stroke="#000c13"></path><path d="M335.1 409.7L335.1 433.9L444.4 394.7Z" fill="#000f1b" stroke="#000f1b"></path><path d="M444.4 394.7L502.6 454.9L506.6 373.7Z" fill="#000e18" stroke="#000e18"></path><path d="M231.8 393.7L335.1 409.7L278.8 284.6Z" fill="#000e16" stroke="#000e16"></path><path d="M439.4 151.3L336.1 130.3L320.1 222.4Z" fill="#000f1b" stroke="#000f1b"></path><path d="M506.6 373.7L543.6 336.6L425.4 312.6Z" fill="#000c13" stroke="#000c13"></path><path d="M336.1 130.3L259.8 167.3L320.1 222.4Z" fill="#010a0e" stroke="#010a0e"></path><path d="M550.6 202.4L525.6 170.3L414.4 250.4Z" fill="#000c13" stroke="#000c13"></path><path d="M543.6 336.6L550.6 202.4L414.4 250.4Z" fill="#00101c" stroke="#00101c"></path><path d="M193.5 359.7L231.8 393.7L278.8 284.6Z" fill="#000c13" stroke="#000c13"></path><path d="M436.4 61.1L344.1 102.1L439.4 151.3Z" fill="#000f19" stroke="#000f19"></path><path d="M439.4 151.3L344.1 102.1L336.1 130.3Z" fill="#000c13" stroke="#000c13"></path><path d="M336.1 130.3L267.8 53.1L259.8 167.3Z" fill="#010a0e" stroke="#010a0e"></path><path d="M335.1 433.9L454.4 479.9L444.4 394.7Z" fill="#000f1b" stroke="#000f1b"></path><path d="M506.6 373.7L581.9 364.7L543.6 336.6Z" fill="#000d15" stroke="#000d15"></path><path d="M454.4 479.9L502.6 454.9L444.4 394.7Z" fill="#000f19" stroke="#000f19"></path><path d="M181.5 252.4L278.8 284.6L251.8 213.4Z" fill="#000e16" stroke="#000e16"></path><path d="M164.5 282.6L193.5 359.7L278.8 284.6Z" fill="#000d15" stroke="#000d15"></path><path d="M157.5 137.3L181.5 252.4L251.8 213.4Z" fill="#000f1b" stroke="#000f1b"></path><path d="M502.6 454.9L581.9 364.7L506.6 373.7Z" fill="#000f19" stroke="#000f19"></path><path d="M543.6 336.6L614.9 282.6L550.6 202.4Z" fill="#010b10" stroke="#010b10"></path><path d="M181.5 252.4L164.5 282.6L278.8 284.6Z" fill="#000c13" stroke="#000c13"></path><path d="M231.8 393.7L254.8 471.9L335.1 433.9Z" fill="#000f19" stroke="#000f19"></path><path d="M322.1 540L440.4 540L454.4 479.9Z" fill="#000f19" stroke="#000f19"></path><path d="M196.5 480.9L254.8 471.9L231.8 393.7Z" fill="#000e18" stroke="#000e18"></path><path d="M581.9 364.7L614.9 282.6L543.6 336.6Z" fill="#010b10" stroke="#010b10"></path><path d="M550.6 202.4L586.9 147.3L525.6 170.3Z" fill="#000f19" stroke="#000f19"></path><path d="M509.6 60.1L436.4 61.1L439.4 151.3Z" fill="#010a0e" stroke="#010a0e"></path><path d="M620.9 212.4L586.9 147.3L550.6 202.4Z" fill="#010b10" stroke="#010b10"></path><path d="M525.6 170.3L509.6 60.1L439.4 151.3Z" fill="#00101c" stroke="#00101c"></path><path d="M614.9 282.6L620.9 212.4L550.6 202.4Z" fill="#000f19" stroke="#000f19"></path><path d="M322.1 540L454.4 479.9L335.1 433.9Z" fill="#000e16" stroke="#000e16"></path><path d="M454.4 479.9L497.6 540L502.6 454.9Z" fill="#00101c" stroke="#00101c"></path><path d="M502.6 454.9L615.9 488.9L581.9 364.7Z" fill="#010b10" stroke="#010b10"></path><path d="M586.9 147.3L509.6 60.1L525.6 170.3Z" fill="#000c13" stroke="#000c13"></path><path d="M254.8 471.9L322.1 540L335.1 433.9Z" fill="#000d15" stroke="#000d15"></path><path d="M344.1 102.1L267.8 53.1L336.1 130.3Z" fill="#000e18" stroke="#000e18"></path><path d="M259.8 167.3L157.5 137.3L251.8 213.4Z" fill="#010b10" stroke="#010b10"></path><path d="M60.3 243.4L115.3 310.6L164.5 282.6Z" fill="#000e16" stroke="#000e16"></path><path d="M363.1 0L267.8 53.1L344.1 102.1Z" fill="#000f1b" stroke="#000f1b"></path><path d="M363.1 0L344.1 102.1L436.4 61.1Z" fill="#000c13" stroke="#000c13"></path><path d="M193.5 359.7L196.5 480.9L231.8 393.7Z" fill="#000c12" stroke="#000c12"></path><path d="M254.8 471.9L267.8 540L322.1 540Z" fill="#000d15" stroke="#000d15"></path><path d="M105.3 435.9L196.5 480.9L193.5 359.7Z" fill="#000f19" stroke="#000f19"></path><path d="M60.3 243.4L164.5 282.6L181.5 252.4Z" fill="#00101c" stroke="#00101c"></path><path d="M164.5 282.6L115.3 310.6L193.5 359.7Z" fill="#000f1b" stroke="#000f1b"></path><path d="M267.8 53.1L157.5 137.3L259.8 167.3Z" fill="#00101c" stroke="#00101c"></path><path d="M440.4 540L497.6 540L454.4 479.9Z" fill="#00101c" stroke="#00101c"></path><path d="M196.5 480.9L267.8 540L254.8 471.9Z" fill="#000f19" stroke="#000f19"></path><path d="M115.3 310.6L113.3 375.7L193.5 359.7Z" fill="#010b10" stroke="#010b10"></path><path d="M445.4 0L363.1 0L436.4 61.1Z" fill="#02090c" stroke="#02090c"></path><path d="M509.6 60.1L445.4 0L436.4 61.1Z" fill="#000d15" stroke="#000d15"></path><path d="M497.6 540L615.9 488.9L502.6 454.9Z" fill="#000e16" stroke="#000e16"></path><path d="M726.2 295.6L690.2 226.4L614.9 282.6Z" fill="#010b10" stroke="#010b10"></path><path d="M614.9 282.6L690.2 226.4L620.9 212.4Z" fill="#000e16" stroke="#000e16"></path><path d="M586.9 147.3L590.9 60.1L509.6 60.1Z" fill="#010b10" stroke="#010b10"></path><path d="M509.6 60.1L550.6 0L445.4 0Z" fill="#000e16" stroke="#000e16"></path><path d="M681.2 144.3L590.9 60.1L586.9 147.3Z" fill="#000f1b" stroke="#000f1b"></path><path d="M173.5 0L145.5 92.1L267.8 53.1Z" fill="#010b10" stroke="#010b10"></path><path d="M267.8 53.1L145.5 92.1L157.5 137.3Z" fill="#02090c" stroke="#02090c"></path><path d="M85.3 148.3L60.3 243.4L181.5 252.4Z" fill="#000c12" stroke="#000c12"></path><path d="M717.2 355.7L614.9 282.6L581.9 364.7Z" fill="#02090c" stroke="#02090c"></path><path d="M620.9 212.4L681.2 144.3L586.9 147.3Z" fill="#000e18" stroke="#000e18"></path><path d="M363.1 0L256.8 0L267.8 53.1Z" fill="#000d15" stroke="#000d15"></path><path d="M0 402.7L105.3 435.9L113.3 375.7Z" fill="#000f19" stroke="#000f19"></path><path d="M113.3 375.7L105.3 435.9L193.5 359.7Z" fill="#000f1b" stroke="#000f1b"></path><path d="M196.5 480.9L165.5 540L267.8 540Z" fill="#000e16" stroke="#000e16"></path><path d="M85.3 148.3L181.5 252.4L157.5 137.3Z" fill="#000e18" stroke="#000e18"></path><path d="M115.3 310.6L0 285.6L113.3 375.7Z" fill="#010b10" stroke="#010b10"></path><path d="M690.2 226.4L681.2 144.3L620.9 212.4Z" fill="#010a0e" stroke="#010a0e"></path><path d="M145.5 92.1L85.3 148.3L157.5 137.3Z" fill="#000e18" stroke="#000e18"></path><path d="M614.9 0L550.6 0L590.9 60.1Z" fill="#000f19" stroke="#000f19"></path><path d="M590.9 60.1L550.6 0L509.6 60.1Z" fill="#00101c" stroke="#00101c"></path><path d="M615.9 488.9L673.2 456.9L581.9 364.7Z" fill="#000f19" stroke="#000f19"></path><path d="M105.3 435.9L165.5 540L196.5 480.9Z" fill="#000c13" stroke="#000c13"></path><path d="M673.2 456.9L717.2 355.7L581.9 364.7Z" fill="#000e16" stroke="#000e16"></path><path d="M690.2 226.4L800.5 171.3L681.2 144.3Z" fill="#02090c" stroke="#02090c"></path><path d="M717.2 355.7L726.2 295.6L614.9 282.6Z" fill="#000c13" stroke="#000c13"></path><path d="M497.6 540L622.9 540L615.9 488.9Z" fill="#010a0e" stroke="#010a0e"></path><path d="M615.9 488.9L622.9 540L673.2 456.9Z" fill="#000e16" stroke="#000e16"></path><path d="M173.5 0L112.3 58.1L145.5 92.1Z" fill="#00101c" stroke="#00101c"></path><path d="M145.5 92.1L112.3 58.1L85.3 148.3Z" fill="#010a0e" stroke="#010a0e"></path><path d="M256.8 0L173.5 0L267.8 53.1Z" fill="#000d15" stroke="#000d15"></path><path d="M679.2 50.1L614.9 0L590.9 60.1Z" fill="#000f19" stroke="#000f19"></path><path d="M681.2 144.3L679.2 50.1L590.9 60.1Z" fill="#000d15" stroke="#000d15"></path><path d="M777.5 84.1L679.2 50.1L681.2 144.3Z" fill="#010a0e" stroke="#010a0e"></path><path d="M0 251.4L60.3 243.4L0 181.3Z" fill="#000f1b" stroke="#000f1b"></path><path d="M0 251.4L0 285.6L60.3 243.4Z" fill="#000c13" stroke="#000c13"></path><path d="M60.3 243.4L0 285.6L115.3 310.6Z" fill="#000e18" stroke="#000e18"></path><path d="M105.3 435.9L64.3 540L165.5 540Z" fill="#000e16" stroke="#000e16"></path><path d="M0 181.3L60.3 243.4L85.3 148.3Z" fill="#02090c" stroke="#02090c"></path><path d="M717.2 355.7L810.5 334.6L726.2 295.6Z" fill="#000f1b" stroke="#000f1b"></path><path d="M813.5 204.4L800.5 171.3L690.2 226.4Z" fill="#000c12" stroke="#000c12"></path><path d="M673.2 456.9L758.5 403.7L717.2 355.7Z" fill="#010b10" stroke="#010b10"></path><path d="M777.5 466.9L758.5 403.7L673.2 456.9Z" fill="#000f1b" stroke="#000f1b"></path><path d="M173.5 0L115.3 0L112.3 58.1Z" fill="#000c13" stroke="#000c13"></path><path d="M0 56.1L0 181.3L85.3 148.3Z" fill="#000f1b" stroke="#000f1b"></path><path d="M0 56.1L85.3 148.3L112.3 58.1Z" fill="#010b10" stroke="#010b10"></path><path d="M0 285.6L0 402.7L113.3 375.7Z" fill="#000e18" stroke="#000e18"></path><path d="M757.5 0L671.2 0L679.2 50.1Z" fill="#000f1b" stroke="#000f1b"></path><path d="M679.2 50.1L671.2 0L614.9 0Z" fill="#010b10" stroke="#010b10"></path><path d="M0 439.9L64.3 540L105.3 435.9Z" fill="#000f1b" stroke="#000f1b"></path><path d="M0 402.7L0 439.9L105.3 435.9Z" fill="#000f1b" stroke="#000f1b"></path><path d="M622.9 540L714.2 540L673.2 456.9Z" fill="#000e16" stroke="#000e16"></path><path d="M884.7 395.7L810.5 334.6L758.5 403.7Z" fill="#00101c" stroke="#00101c"></path><path d="M758.5 403.7L810.5 334.6L717.2 355.7Z" fill="#000c12" stroke="#000c12"></path><path d="M813.5 204.4L690.2 226.4L726.2 295.6Z" fill="#010b10" stroke="#010b10"></path><path d="M714.2 540L777.5 466.9L673.2 456.9Z" fill="#00101c" stroke="#00101c"></path><path d="M810.5 334.6L813.5 204.4L726.2 295.6Z" fill="#010b10" stroke="#010b10"></path><path d="M871.7 64.1L777.5 84.1L800.5 171.3Z" fill="#02090c" stroke="#02090c"></path><path d="M800.5 171.3L777.5 84.1L681.2 144.3Z" fill="#000f1b" stroke="#000f1b"></path><path d="M0 0L0 56.1L112.3 58.1Z" fill="#010b10" stroke="#010b10"></path><path d="M0 439.9L0 540L64.3 540Z" fill="#000d15" stroke="#000d15"></path><path d="M777.5 84.1L757.5 0L679.2 50.1Z" fill="#000f1b" stroke="#000f1b"></path><path d="M860.7 0L757.5 0L777.5 84.1Z" fill="#000f1b" stroke="#000f1b"></path><path d="M884.7 395.7L859.7 309.6L810.5 334.6Z" fill="#000f1b" stroke="#000f1b"></path><path d="M810.5 334.6L859.7 309.6L813.5 204.4Z" fill="#000c13" stroke="#000c13"></path><path d="M813.5 204.4L874.7 175.3L800.5 171.3Z" fill="#000f1b" stroke="#000f1b"></path><path d="M115.3 0L0 0L112.3 58.1Z" fill="#000c13" stroke="#000c13"></path><path d="M859.7 309.6L859.7 207.4L813.5 204.4Z" fill="#000d15" stroke="#000d15"></path><path d="M777.5 466.9L858.7 467.9L758.5 403.7Z" fill="#010b10" stroke="#010b10"></path><path d="M714.2 540L797.5 540L777.5 466.9Z" fill="#000e16" stroke="#000e16"></path><path d="M960 229.4L874.7 175.3L859.7 207.4Z" fill="#000f19" stroke="#000f19"></path><path d="M859.7 207.4L874.7 175.3L813.5 204.4Z" fill="#000c12" stroke="#000c12"></path><path d="M797.5 540L858.7 467.9L777.5 466.9Z" fill="#000c12" stroke="#000c12"></path><path d="M859.7 309.6L960 281.6L859.7 207.4Z" fill="#02090c" stroke="#02090c"></path><path d="M858.7 467.9L884.7 395.7L758.5 403.7Z" fill="#000e16" stroke="#000e16"></path><path d="M797.5 540L855.7 540L858.7 467.9Z" fill="#000d15" stroke="#000d15"></path><path d="M960 479.9L960 377.7L884.7 395.7Z" fill="#000e18" stroke="#000e18"></path><path d="M960 133.3L871.7 64.1L874.7 175.3Z" fill="#010a0e" stroke="#010a0e"></path><path d="M874.7 175.3L871.7 64.1L800.5 171.3Z" fill="#000c13" stroke="#000c13"></path><path d="M871.7 64.1L860.7 0L777.5 84.1Z" fill="#000e16" stroke="#000e16"></path><path d="M960 377.7L960 281.6L859.7 309.6Z" fill="#000d15" stroke="#000d15"></path><path d="M871.7 64.1L960 0L860.7 0Z" fill="#000c13" stroke="#000c13"></path><path d="M960 377.7L859.7 309.6L884.7 395.7Z" fill="#000e16" stroke="#000e16"></path><path d="M960 281.6L960 229.4L859.7 207.4Z" fill="#010a0e" stroke="#010a0e"></path><path d="M960 479.9L884.7 395.7L858.7 467.9Z" fill="#010a0e" stroke="#010a0e"></path><path d="M960 229.4L960 133.3L874.7 175.3Z" fill="#000e18" stroke="#000e18"></path><path d="M960 133.3L960 102.1L871.7 64.1Z" fill="#02090c" stroke="#02090c"></path><path d="M855.7 540L960 479.9L858.7 467.9Z" fill="#000f1b" stroke="#000f1b"></path><path d="M855.7 540L960 540L960 479.9Z" fill="#010a0e" stroke="#010a0e"></path><path d="M960 102.1L960 0L871.7 64.1Z" fill="#010a0e" stroke="#010a0e"></path></g></svg>